<svg width="45" height="46" viewBox="0 0 45 46" fill="none" xmlns="http://www.w3.org/2000/svg">
<circle cx="22.5" cy="22.8359" r="21.5" stroke="#57007B" stroke-width="2"/>
<path d="M29.0625 21.8984H17.9438L21.3469 17.8109C21.506 17.6194 21.5826 17.3726 21.5597 17.1247C21.5369 16.8768 21.4165 16.6481 21.225 16.489C21.0335 16.3299 20.7867 16.2533 20.5388 16.2762C20.2909 16.299 20.0623 16.4194 19.9031 16.6109L15.2156 22.2359C15.1841 22.2806 15.1559 22.3276 15.1312 22.3765C15.1312 22.4234 15.1313 22.4515 15.0656 22.4984C15.0231 22.6059 15.0009 22.7203 15 22.8359C15.0009 22.9515 15.0231 23.0659 15.0656 23.1734C15.0656 23.2203 15.0656 23.2484 15.1312 23.2953C15.1559 23.3441 15.1841 23.3911 15.2156 23.4359L19.9031 29.0609C19.9913 29.1667 20.1017 29.2518 20.2264 29.3102C20.3512 29.3685 20.4873 29.3986 20.625 29.3984C20.844 29.3988 21.0563 29.3225 21.225 29.1828C21.3199 29.1041 21.3984 29.0074 21.4559 28.8983C21.5134 28.7893 21.5489 28.6699 21.5602 28.5471C21.5715 28.4243 21.5585 28.3005 21.5219 28.1828C21.4853 28.065 21.4258 27.9556 21.3469 27.8609L17.9438 23.7734H29.0625C29.3111 23.7734 29.5496 23.6746 29.7254 23.4988C29.9012 23.323 30 23.0845 30 22.8359C30 22.5873 29.9012 22.3488 29.7254 22.173C29.5496 21.9972 29.3111 21.8984 29.0625 21.8984Z" fill="#57007B"/>
</svg>
