<svg width="133" height="134" viewBox="0 0 133 134" fill="none" xmlns="http://www.w3.org/2000/svg">
<g filter="url(#filter0_d_10_2231)">
<circle cx="66.5" cy="52.8359" r="22.5" fill="#FAFAFA"/>
<circle cx="66.5" cy="52.8359" r="21.5" stroke="#57007B" stroke-width="2"/>
</g>
<path d="M59.9375 51.8984H71.0562L67.6531 47.8109C67.494 47.6194 67.4174 47.3726 67.4403 47.1247C67.4631 46.8768 67.5835 46.6481 67.775 46.489C67.9665 46.3299 68.2133 46.2533 68.4612 46.2762C68.7091 46.299 68.9377 46.4194 69.0969 46.6109L73.7844 52.2359C73.8159 52.2806 73.8441 52.3276 73.8688 52.3765C73.8688 52.4234 73.8687 52.4515 73.9344 52.4984C73.9769 52.6059 73.9991 52.7203 74 52.8359C73.9991 52.9515 73.9769 53.0659 73.9344 53.1734C73.9344 53.2203 73.9344 53.2484 73.8688 53.2953C73.8441 53.3441 73.8159 53.3911 73.7844 53.4359L69.0969 59.0609C69.0087 59.1667 68.8983 59.2518 68.7736 59.3102C68.6488 59.3685 68.5127 59.3986 68.375 59.3984C68.156 59.3988 67.9437 59.3225 67.775 59.1828C67.6801 59.1041 67.6016 59.0074 67.5441 58.8983C67.4866 58.7893 67.4511 58.6699 67.4398 58.5471C67.4285 58.4243 67.4415 58.3005 67.4781 58.1828C67.5147 58.065 67.5742 57.9556 67.6531 57.8609L71.0562 53.7734H59.9375C59.6889 53.7734 59.4504 53.6746 59.2746 53.4988C59.0988 53.323 59 53.0845 59 52.8359C59 52.5873 59.0988 52.3488 59.2746 52.173C59.4504 51.9972 59.6889 51.8984 59.9375 51.8984Z" fill="#57007B"/>
<defs>
<filter id="filter0_d_10_2231" x="0" y="0.335938" width="133" height="133" filterUnits="userSpaceOnUse" color-interpolation-filters="sRGB">
<feFlood flood-opacity="0" result="BackgroundImageFix"/>
<feColorMatrix in="SourceAlpha" type="matrix" values="0 0 0 0 0 0 0 0 0 0 0 0 0 0 0 0 0 0 127 0" result="hardAlpha"/>
<feOffset dy="14"/>
<feGaussianBlur stdDeviation="22"/>
<feColorMatrix type="matrix" values="0 0 0 0 0.0561111 0 0 0 0 0.0777333 0 0 0 0 0.133333 0 0 0 0.08 0"/>
<feBlend mode="normal" in2="BackgroundImageFix" result="effect1_dropShadow_10_2231"/>
<feBlend mode="normal" in="SourceGraphic" in2="effect1_dropShadow_10_2231" result="shape"/>
</filter>
</defs>
</svg>
