<svg width="167" height="94" viewBox="0 0 167 94" fill="none" xmlns="http://www.w3.org/2000/svg">
<path fill-rule="evenodd" clip-rule="evenodd" d="M62.1167 49.4614C61.1267 48.9914 62.1167 47.7853 62.5867 47.4183C63.5767 46.6853 64.8827 46.4234 66.0827 46.5184L65.9787 48.6663C65.9267 49.7663 65.6657 49.2964 64.8827 49.8714C64.0477 50.4474 62.2227 51.2853 62.1177 49.4513L62.1167 49.4614ZM99.1097 72.2994C100.52 73.1994 103.127 75.8613 100.988 77.1693C98.9527 79.0553 97.8047 75.0744 95.9777 74.5494C96.7607 73.5014 97.7517 72.5063 99.1077 72.2973L99.1097 72.2994ZM73.6497 75.3373C71.9797 75.5993 71.0397 77.1173 69.6327 77.9043C68.3287 78.6903 67.8067 77.6423 67.7027 77.4343C67.4927 77.3293 67.4927 77.5394 67.1807 77.2344C65.9807 75.2964 68.4327 73.8824 69.7377 72.9394C71.5637 72.5194 72.7117 74.0913 73.6507 75.3393L73.6497 75.3373ZM106.99 49.1994C106.886 51.0324 105.06 50.1943 104.225 49.6193C103.442 49.0433 103.182 49.5144 103.129 48.4144L103.025 46.2663C104.225 46.1613 105.529 46.4233 106.521 47.1663C107.043 47.5863 107.981 48.7363 106.991 49.2093L106.99 49.1994Z" fill="#F6D2A2"/>
<path d="M63.1098 50.7702C62.7448 50.7702 62.0668 50.6132 61.9618 49.5652C61.6488 49.3652 61.5448 49.0952 61.5448 48.9352C61.4928 48.3052 62.1708 47.5732 62.5348 47.3112C63.3698 46.6812 64.4648 46.3682 65.6128 46.3682H66.2908V46.5252C66.3428 47.1012 66.2908 47.6772 66.2388 48.2012C66.2388 48.3582 66.2388 48.5152 66.1868 48.6712C66.1348 49.4572 65.9768 49.5712 65.6128 49.7192C65.4558 49.7712 65.2998 49.8242 65.0388 50.0332C64.7788 50.1902 63.8908 50.7662 63.1088 50.7662L63.1098 50.7702ZM65.6138 46.6842C64.5178 46.6842 63.5268 46.9982 62.7438 47.5842C62.3788 47.8462 61.8568 48.4842 61.9088 48.8842C61.9088 49.0412 62.0128 49.1982 62.2218 49.3042L62.3258 49.3562V49.4612C62.3778 50.2992 62.7958 50.4042 63.1088 50.4042C63.6308 50.4042 64.3608 50.0372 64.8308 49.7242C65.1438 49.5242 65.3528 49.4622 65.5088 49.4102C65.7688 49.3052 65.8218 49.3052 65.8738 48.6772C65.8738 48.5202 65.8738 48.3632 65.9258 48.2072C65.9778 47.7372 65.9778 47.2122 65.9778 46.7402C65.8208 46.6882 65.7178 46.6882 65.6128 46.6882L65.6138 46.6842Z" fill="black"/>
<path fill-rule="evenodd" clip-rule="evenodd" d="M62.1167 49.462C62.3767 49.357 62.6907 49.305 62.8467 49.042L62.1167 49.462Z" fill="#C6B198"/>
<path d="M62.1169 49.62C62.0649 49.62 61.9599 49.568 61.9599 49.515C61.9079 49.41 61.9599 49.315 62.0639 49.315C62.1159 49.315 62.1679 49.263 62.1679 49.263C62.3779 49.158 62.5849 49.106 62.6899 48.949C62.7419 48.897 62.8469 48.844 62.9499 48.897C63.0019 48.949 63.0539 49.054 63.0019 49.159C62.8297 49.3712 62.5907 49.5189 62.3239 49.578L62.2199 49.63H62.1159L62.1169 49.62Z" fill="black"/>
<path fill-rule="evenodd" clip-rule="evenodd" d="M66.3961 27.305C59.3001 25.305 64.5701 16.253 70.2561 19.972L66.3961 27.305Z" fill="#6AD7E5"/>
<path d="M66.4999 27.5138L66.3429 27.4618C62.6909 26.4138 62.7429 23.7948 62.8469 23.0098C63.1069 21.0098 64.9869 18.9238 67.4899 18.9238C68.4799 18.9238 69.4199 19.2378 70.3599 19.8668L70.5169 19.9718L66.4999 27.5138ZM67.4899 19.2898C65.1419 19.2898 63.4199 21.2278 63.1599 23.0598C62.8999 24.9458 64.0469 26.4118 66.2899 27.0928L69.9939 20.0228C69.2109 19.5528 68.3769 19.2898 67.4899 19.2898Z" fill="black"/>
<path fill-rule="evenodd" clip-rule="evenodd" d="M97.8569 19.3C103.44 15.37 108.553 24.276 102.031 26.53L97.8569 19.3Z" fill="#6AD7E5"/>
<path d="M101.978 26.7301L97.648 19.2301L97.805 19.1251C98.805 18.4451 99.788 18.0771 100.779 18.0771C103.179 18.0771 104.901 20.0771 105.266 22.0071C105.423 22.7931 105.579 25.4641 102.136 26.6071L101.979 26.7121L101.978 26.7301ZM98.118 19.3971L102.135 26.3641C104.17 25.6311 105.213 24.0591 104.9 22.1641C104.587 20.3841 102.97 18.5501 100.778 18.5501C99.891 18.4981 99.004 18.7501 98.118 19.3881V19.3971ZM99.9 77.8521C99.065 77.8521 98.335 77.0141 97.7 76.2281C97.126 75.5981 96.552 74.9282 95.926 74.7081L95.666 74.6561L95.823 74.4562C96.449 73.5561 97.493 72.4132 99.058 72.1511H99.11L99.162 72.2032C100.049 72.7792 101.979 74.4031 101.927 75.9231C101.927 76.4991 101.614 76.9711 101.04 77.3371C100.675 77.7041 100.31 77.8611 99.892 77.8611L99.9 77.8521ZM96.248 74.4471C96.874 74.7091 97.396 75.3902 97.918 75.9672C98.544 76.7532 99.17 77.4341 99.848 77.4341C100.161 77.4341 100.474 77.2771 100.788 76.9641H100.84C101.31 76.6501 101.57 76.2841 101.57 75.8121C101.57 74.6071 100.057 73.0881 99.013 72.4071C98.073 72.6691 97.135 73.3071 96.248 74.4501V74.4471ZM100.996 77.3272C100.944 77.3272 100.892 77.2752 100.839 77.2221C100.727 77.0058 100.64 76.7778 100.579 76.5421C100.422 76.1222 100.266 75.7041 99.953 75.3901C99.901 75.3382 99.901 75.2331 99.953 75.1281C100.005 75.0761 100.11 75.0761 100.213 75.1281C100.578 75.4951 100.787 75.9661 100.943 76.4282L101.203 77.0581C101.255 77.1631 101.203 77.2581 101.151 77.3201H100.994L100.996 77.3272Z" fill="black"/>
<path d="M68.743 78.3239C68.065 78.3239 67.7 77.7479 67.595 77.5379H67.543C67.386 77.5379 67.283 77.4859 67.073 77.2759V77.2239C65.925 75.3909 67.908 73.9759 69.213 73.0239L69.683 72.7099H69.787C69.987 72.6579 70.152 72.6579 70.361 72.6579C71.926 72.6579 72.918 74.0199 73.761 75.1199L74.021 75.4869L73.708 75.5389C72.708 75.6959 71.986 76.3249 71.256 76.9529C70.786 77.3729 70.316 77.7389 69.796 78.0529C69.379 78.2099 69.066 78.3149 68.753 78.3149L68.743 78.3239ZM67.595 77.2239C67.647 77.2239 67.699 77.2239 67.795 77.2759H67.847L67.899 77.3279C68.003 77.4849 68.264 77.9579 68.786 77.9579C69.046 77.9579 69.308 77.8529 69.569 77.6959C70.091 77.4339 70.569 77.0159 70.969 76.6479C71.647 76.0719 72.369 75.4429 73.317 75.1809C72.534 74.1329 71.595 72.9809 70.291 72.9809C70.134 72.9809 69.978 72.9809 69.821 73.0329L69.404 73.3469C68.047 74.2899 66.378 75.4949 67.369 77.0669C67.421 77.1719 67.473 77.2239 67.569 77.2239H67.595ZM67.699 77.5909C67.595 77.5909 67.499 77.4859 67.542 77.3909C67.594 76.8669 67.855 76.4909 68.116 76.0909C68.257 75.893 68.3792 75.6824 68.481 75.4619C68.533 75.3569 68.638 75.3569 68.681 75.3569C68.785 75.4089 68.785 75.5139 68.785 75.5569C68.681 75.8189 68.525 76.0269 68.368 76.2369C68.108 76.6039 67.898 76.9169 67.846 77.3369C67.846 77.5369 67.794 77.5989 67.689 77.5989L67.699 77.5909ZM66.709 24.8429C65.769 24.3729 65.092 23.6909 65.666 22.5909C66.188 21.5959 67.179 21.6909 68.118 22.1709L66.718 24.8409L66.709 24.8429ZM100.569 23.8999C101.509 23.4299 102.186 22.7479 101.612 21.6479C101.09 20.6529 100.099 20.7479 99.16 21.2279L100.56 23.8979L100.569 23.8999ZM106.047 50.4999C105.264 50.4999 104.377 49.9239 104.117 49.7669C103.857 49.6099 103.7 49.5049 103.543 49.4529C103.126 49.2959 103.021 49.1909 102.969 48.4049C102.969 48.2479 102.969 48.0909 102.917 47.9349C102.865 47.4109 102.813 46.8349 102.865 46.2589V46.0989H103.543C104.691 46.0989 105.786 46.4129 106.621 47.0419C106.986 47.3039 107.664 48.0369 107.621 48.6659C107.621 48.8659 107.517 49.1359 107.204 49.2959C107.1 50.3439 106.421 50.5009 106.056 50.5009L106.047 50.4999ZM103.177 46.4669L103.229 47.9339C103.229 48.0909 103.229 48.2479 103.281 48.4039C103.333 49.0339 103.385 49.0339 103.646 49.1369C103.803 49.1889 104.011 49.2939 104.324 49.4509C104.794 49.7649 105.524 50.1309 106.046 50.1309C106.359 50.1309 106.776 50.0259 106.829 49.1879V49.0829L106.933 49.0309C107.133 48.9259 107.246 48.8309 107.246 48.6109C107.298 48.1909 106.776 47.5629 106.411 47.3109C105.628 46.7349 104.585 46.4109 103.541 46.4109C103.437 46.4629 103.341 46.4629 103.176 46.4629L103.177 46.4669Z" fill="black"/>
<path fill-rule="evenodd" clip-rule="evenodd" d="M106.987 49.2003C106.727 49.0953 106.413 49.0433 106.257 48.7803L106.987 49.2003Z" fill="#C6B198"/>
<path d="M106.987 49.4H106.935L106.831 49.348C106.571 49.243 106.309 49.191 106.153 48.928C106.101 48.876 106.101 48.728 106.205 48.666C106.257 48.614 106.415 48.614 106.465 48.718C106.569 48.875 106.778 48.918 106.987 49.032C107.039 49.032 107.091 49.084 107.091 49.084C107.195 49.136 107.248 49.241 107.195 49.284C107.142 49.327 107.038 49.389 106.985 49.389L106.987 49.4Z" fill="black"/>
<path fill-rule="evenodd" clip-rule="evenodd" d="M83.8736 15.5694C90.9696 15.5694 97.5956 16.5644 101.091 23.4264C104.221 31.0744 103.074 39.3504 103.595 47.4694C104.012 54.4364 104.899 62.4494 101.717 68.8934C98.3266 75.6504 89.8736 77.3794 82.9336 77.1174C77.4556 76.9174 70.8816 75.1174 67.7506 70.0974C64.1506 64.2304 65.8206 55.4834 66.0806 48.9354C66.3936 41.1834 63.9936 33.3784 66.5506 25.8354C69.1076 17.9354 76.2026 16.1354 83.8726 15.5684" fill="#6AD7E5"/>
<path d="M84.1346 77.3298H82.8296C80.6896 77.2778 77.4556 76.9098 74.2726 75.5998C71.1946 74.3428 68.9506 72.5618 67.4896 70.2048C64.5676 65.4378 65.0896 58.8908 65.5596 53.0748L65.8196 48.9368C65.9236 46.2128 65.7156 43.3848 65.4546 40.7128C65.0376 35.7888 64.6196 30.7078 66.2376 25.7828C67.4896 22.1158 69.7336 19.4968 73.1246 17.8208C75.7846 16.5208 79.0726 15.7778 83.7676 15.4208C90.7576 15.3688 97.6976 16.3638 101.194 23.3208C103.49 28.9258 103.49 34.9508 103.542 40.7638C103.542 42.9638 103.542 45.2158 103.699 47.4158C103.751 48.0958 103.803 48.7778 103.803 49.4588C104.22 55.8588 104.69 63.0788 101.768 68.9448C100.308 71.9308 97.7506 74.1308 94.2546 75.5448C91.4376 76.6968 87.8896 77.3248 84.1326 77.3248L84.1346 77.3298ZM83.8746 15.7298C76.5176 16.3058 69.3176 17.9298 66.6576 25.8918C65.0406 30.7618 65.4576 35.7918 65.8746 40.6618C66.0846 43.3858 66.3446 46.1618 66.2396 48.9378C66.1876 50.2378 66.0826 51.6078 65.9796 53.0758C65.5096 58.8378 64.9896 65.3328 67.8576 69.9958C69.0576 71.9338 72.9176 76.5438 82.8836 76.9098H84.1876C95.7176 76.9098 99.9976 71.7768 101.562 68.7398C104.432 62.9778 103.962 55.7398 103.597 49.4098C103.545 48.7298 103.493 48.0478 103.493 47.3668C103.389 45.1668 103.336 42.9148 103.336 40.7148C103.284 34.9528 103.284 28.9288 101.04 23.3768C99.4746 20.2768 97.1266 18.1908 93.8916 16.9768C90.5516 15.8768 86.7956 15.7198 83.8746 15.7198V15.7298Z" fill="black"/>
<path fill-rule="evenodd" clip-rule="evenodd" d="M85.1256 25.1051C84.7086 18.2431 95.1956 16.3571 96.7606 23.0621C98.4826 30.5621 86.3776 32.5421 85.1256 25.1051ZM70.6736 26.3001C69.0566 18.3381 81.7866 16.8701 82.2566 24.6241C82.6216 31.1191 72.3436 32.7441 70.6736 26.3001Z" fill="white"/>
<path d="M90.8648 29.9756C88.5168 29.9756 85.5428 28.7186 84.9168 25.1556C84.8128 23.4796 85.3338 21.9606 86.4298 20.8076C87.6299 19.5076 89.4558 18.7646 91.3338 18.7646C93.5338 18.7646 96.1338 19.9166 96.8638 23.1126C97.2808 24.8926 96.9678 26.4646 95.9768 27.7126C94.8808 29.0746 92.9508 29.9646 90.8638 29.9646L90.8648 29.9756ZM85.2818 25.1056C85.5418 26.5726 86.2219 27.7256 87.3169 28.5626C88.2569 29.2956 89.5598 29.6626 90.8648 29.6626C92.7948 29.6626 94.6649 28.8246 95.7169 27.5146C96.6569 26.3626 96.9169 24.8446 96.5519 23.1666C95.8739 20.1806 93.4218 19.1336 91.3348 19.1336C89.5608 19.1336 87.8389 19.8666 86.6919 21.0716C85.6919 22.1196 85.1788 23.5336 85.2918 25.1046L85.2818 25.1056ZM89.8218 24.7916C89.8218 25.8396 89.0388 26.6776 88.0998 26.6776C87.1608 26.6776 86.3778 25.8396 86.3778 24.7916C86.3778 23.7436 87.1608 22.9056 88.0998 22.9056C89.0388 22.9056 89.8218 23.7436 89.8218 24.7916ZM76.1518 30.6046C73.9088 30.6046 71.2998 29.5046 70.4648 26.3616C70.0998 24.5286 70.4649 22.8616 71.5079 21.5946C72.6559 20.1806 74.5339 19.3426 76.5679 19.3426C79.2809 19.3426 82.1508 20.9666 82.3678 24.6426C82.4718 26.1626 82.0029 27.5226 80.9679 28.6226C79.8719 29.8276 78.0458 30.6226 76.1678 30.6226L76.1518 30.6046ZM76.5698 19.6996C74.6398 19.6996 72.8658 20.4856 71.7698 21.7946C70.7698 22.9996 70.4659 24.5186 70.8299 26.2466C71.5599 29.1796 74.0648 30.2266 76.1518 30.2266C77.9258 30.2266 79.6478 29.5466 80.7518 28.3406C81.2196 27.8479 81.5777 27.2616 81.8024 26.6204C82.0272 25.9792 82.1136 25.2976 82.0558 24.6206C81.9518 22.3686 80.4389 19.6966 76.5779 19.6966L76.5698 19.6996ZM75.2658 25.2516C75.2658 26.2996 74.4828 27.1376 73.5438 27.1376C72.6048 27.1376 71.8218 26.2996 71.8218 25.2516C71.8218 24.2036 72.6048 23.3656 73.5438 23.3656C74.4828 23.3656 75.2658 24.2036 75.2658 25.2516Z" fill="black"/>
<path fill-rule="evenodd" clip-rule="evenodd" d="M86.5868 34.0001C86.5868 34.9431 86.7968 36.0431 86.6388 37.1001C86.3788 37.5701 85.9088 37.6241 85.4908 37.7801C84.9168 37.6751 84.4478 37.3101 84.1868 36.7851C84.0298 35.6331 84.2388 34.4801 84.2908 33.3281L86.5868 34.0081V34.0001Z" fill="white"/>
<path d="M85.4898 38.0002C84.8118 37.8952 84.2898 37.4762 84.0298 36.9002C83.9258 36.0622 83.9778 35.2762 84.0298 34.5002C84.0818 34.1332 84.0818 33.7672 84.0818 33.4002V33.2002L86.7418 34.0382V34.1432C86.7418 34.4572 86.7938 34.7732 86.7938 35.1382C86.8458 35.8182 86.8978 36.5522 86.7938 37.2332V37.2852C86.5838 37.7052 86.2198 37.8092 85.8538 37.9652C85.7498 37.9132 85.6438 37.9652 85.4888 38.0172L85.4898 38.0002ZM84.3418 36.7432C84.5518 37.2132 84.9678 37.5292 85.4378 37.6432C85.5418 37.5912 85.6478 37.5912 85.6978 37.5382C86.0108 37.4332 86.2718 37.3382 86.4278 37.0682C86.5318 36.4382 86.4798 35.7682 86.4278 35.0682C86.4278 34.7542 86.3758 34.4382 86.3758 34.1682L84.3928 33.5382C84.3928 33.8522 84.3408 34.1682 84.3408 34.4382C84.2888 35.2762 84.2368 36.0082 84.3408 36.7432H84.3418Z" fill="black"/>
<path fill-rule="evenodd" clip-rule="evenodd" d="M74.6997 25.6795C74.6997 25.9415 74.4997 26.1495 74.2827 26.1495C74.0657 26.1495 73.8657 25.9495 73.8657 25.6795C73.8657 25.4095 74.0657 25.2095 74.2827 25.2095C74.5427 25.2095 74.6997 25.4095 74.6997 25.6795ZM89.2997 25.1995C89.2997 25.4615 89.1427 25.6695 88.8827 25.6695C88.6827 25.6695 88.4657 25.4695 88.4657 25.1995C88.4657 24.9295 88.6227 24.7295 88.8827 24.7295C89.0827 24.7295 89.2997 24.9295 89.2997 25.1995ZM81.5777 33.9045C80.7947 35.7375 81.9947 39.4565 84.0817 36.7345C83.9247 35.5825 84.1337 34.4295 84.1857 33.2775L81.5857 33.9075L81.5777 33.9045Z" fill="white"/>
<path d="M82.6739 37.8857C82.3089 37.8857 81.9439 37.6857 81.6839 37.2557C81.1099 36.4177 81.0059 34.8557 81.4239 33.8507L81.4759 33.7457L84.3459 33.0127V33.2127L84.2939 34.3647C84.2419 35.1507 84.1899 35.8847 84.2939 36.6697V36.7217L84.2419 36.7737C83.7199 37.5067 83.1989 37.8737 82.6769 37.8737L82.6739 37.8857ZM81.7339 34.0617C81.4209 34.9617 81.5239 36.3667 81.9939 37.0477C82.2039 37.3617 82.4109 37.5177 82.6719 37.5177C83.0369 37.5177 83.4549 37.2037 83.8719 36.6797C83.7679 35.8937 83.8199 35.1097 83.9239 34.3747L83.9759 33.4747L81.7329 34.0507L81.7339 34.0617Z" fill="black"/>
<path fill-rule="evenodd" clip-rule="evenodd" d="M81.8397 30.3428C80.4297 30.4478 79.2827 32.1758 80.0137 33.4858C81.0037 35.2658 83.1437 33.3288 84.5007 33.4858C86.0657 33.5378 87.3177 35.1618 88.5707 33.7998C89.9807 32.2798 87.9447 30.8138 86.4307 30.1328L81.8407 30.3328L81.8397 30.3428Z" fill="#F6D2A2"/>
<path d="M87.4737 34.5324C87.0037 34.5324 86.5337 34.3324 86.0637 34.1124C85.5937 33.8924 85.0737 33.6924 84.4987 33.6924H84.3417C83.9247 33.6924 83.4547 33.8494 82.9317 34.0594C82.3577 34.2594 81.7837 34.4264 81.2617 34.4264C80.6357 34.4264 80.1657 34.1644 79.8517 33.5884C79.4867 32.9584 79.5387 32.2264 79.9037 31.5454C80.3207 30.7594 81.0517 30.2884 81.8337 30.1834L86.5297 29.9834C87.6777 30.4534 88.9817 31.3454 89.2427 32.3834C89.3467 32.9074 89.1907 33.4314 88.7727 33.9034C88.3547 34.3754 87.9377 34.5334 87.4687 34.5334L87.4737 34.5324ZM84.5517 33.3804C85.1257 33.3804 85.6997 33.6424 86.2217 33.8504C86.6917 34.0504 87.1087 34.2174 87.5257 34.2174C87.8907 34.2174 88.2037 34.0604 88.5157 33.7474C88.6763 33.5944 88.798 33.4052 88.8705 33.1955C88.943 32.9859 88.9644 32.762 88.9327 32.5424C88.7227 31.6424 87.4727 30.8124 86.4807 30.3944L81.9407 30.5944C81.2627 30.6464 80.6367 31.1184 80.2707 31.7464C79.9577 32.3224 79.9577 32.9514 80.2187 33.4764C80.4787 33.9464 80.7927 34.1564 81.3147 34.1564C81.7847 34.1564 82.3047 33.9564 82.8277 33.7894C83.4017 33.5894 83.8707 33.4224 84.3927 33.4224C84.3927 33.3174 84.4447 33.3174 84.5497 33.3704L84.5517 33.3804Z" fill="#231F20"/>
<path d="M81.6829 30.2993C81.5789 27.8373 86.2729 27.5233 86.7959 29.5663C87.3699 31.6613 81.8919 32.1333 81.6829 30.2993Z" fill="black"/>
</svg>
