<svg width="63" height="62" viewBox="0 0 63 62" fill="none" xmlns="http://www.w3.org/2000/svg">
<g filter="url(#filter0_d_27_555)">
<ellipse cx="31.1515" cy="26.8967" rx="17.0118" ry="16.2834" fill="#FAFAFA"/>
</g>
<g clip-path="url(#clip0_27_555)">
<path d="M37.1555 23.5141C36.6717 23.7173 36.1563 23.8519 35.6188 23.9173C36.1717 23.6013 36.5937 23.1048 36.7921 22.5063C36.2766 22.8005 35.7074 23.0083 35.1009 23.1242C34.6114 22.6254 33.9138 22.3164 33.1528 22.3164C31.6763 22.3164 30.4876 23.4636 30.4876 24.8699C30.4876 25.0722 30.5055 25.2668 30.5494 25.452C28.3321 25.3485 26.3702 24.3313 25.0522 22.7818C24.8221 23.1639 24.6872 23.6013 24.6872 24.0721C24.6872 24.9562 25.1628 25.7399 25.8718 26.1937C25.4433 26.1859 25.023 26.0668 24.6668 25.8793C24.6668 25.887 24.6668 25.8972 24.6668 25.9073C24.6668 27.1478 25.5913 28.1782 26.8036 28.4156C26.5865 28.4724 26.3499 28.4996 26.1043 28.4996C25.9336 28.4996 25.7612 28.4903 25.5994 28.4561C25.945 29.467 26.9255 30.2102 28.0915 30.2344C27.1841 30.9138 26.032 31.3231 24.7847 31.3231C24.566 31.3231 24.3563 31.3138 24.1465 31.2881C25.3279 32.0173 26.728 32.4337 28.2378 32.4337C33.1455 32.4337 35.8286 28.5424 35.8286 25.1695C35.8286 25.0566 35.8245 24.9477 35.8188 24.8395C36.3481 24.48 36.7929 24.0309 37.1555 23.5141Z" fill="#1A202C"/>
</g>
<defs>
<filter id="filter0_d_27_555" x="0.139648" y="0.613281" width="62.0234" height="60.5664" filterUnits="userSpaceOnUse" color-interpolation-filters="sRGB">
<feFlood flood-opacity="0" result="BackgroundImageFix"/>
<feColorMatrix in="SourceAlpha" type="matrix" values="0 0 0 0 0 0 0 0 0 0 0 0 0 0 0 0 0 0 127 0" result="hardAlpha"/>
<feOffset dy="4"/>
<feGaussianBlur stdDeviation="7"/>
<feColorMatrix type="matrix" values="0 0 0 0 0 0 0 0 0 0 0 0 0 0 0 0 0 0 0.15 0"/>
<feBlend mode="normal" in2="BackgroundImageFix" result="effect1_dropShadow_27_555"/>
<feBlend mode="normal" in="SourceGraphic" in2="effect1_dropShadow_27_555" result="shape"/>
</filter>
<clipPath id="clip0_27_555">
<rect width="13.009" height="12.4521" fill="white" transform="translate(24.1465 21.1494)"/>
</clipPath>
</defs>
</svg>
