<svg width="63" height="62" viewBox="0 0 63 62" fill="none" xmlns="http://www.w3.org/2000/svg">
<g filter="url(#filter0_d_27_562)">
<ellipse cx="31.1861" cy="26.8967" rx="17.0118" ry="16.2834" fill="#FAFAFA"/>
</g>
<g clip-path="url(#clip0_27_562)">
<path d="M36.1871 31.6859V31.6854H36.1898V27.8212C36.1898 25.9308 35.7647 24.4746 33.4558 24.4746C32.3459 24.4746 31.601 25.0576 31.2969 25.6103H31.2648V24.6511H29.0757V31.6854H31.3552V28.2023C31.3552 27.2852 31.5368 26.3984 32.7233 26.3984C33.8924 26.3984 33.9099 27.445 33.9099 28.2611V31.6859H36.1871Z" fill="#1A202C"/>
<path d="M25.3638 24.6514H27.646V31.6857H25.3638V24.6514Z" fill="#1A202C"/>
<path d="M26.504 21.1494C25.7742 21.1494 25.1821 21.7162 25.1821 22.4147C25.1821 23.1131 25.7742 23.6917 26.504 23.6917C27.2337 23.6917 27.8258 23.1131 27.8258 22.4147C27.8253 21.7162 27.2332 21.1494 26.504 21.1494V21.1494Z" fill="#1A202C"/>
</g>
<defs>
<filter id="filter0_d_27_562" x="0.174316" y="0.613281" width="62.0234" height="60.5664" filterUnits="userSpaceOnUse" color-interpolation-filters="sRGB">
<feFlood flood-opacity="0" result="BackgroundImageFix"/>
<feColorMatrix in="SourceAlpha" type="matrix" values="0 0 0 0 0 0 0 0 0 0 0 0 0 0 0 0 0 0 127 0" result="hardAlpha"/>
<feOffset dy="4"/>
<feGaussianBlur stdDeviation="7"/>
<feColorMatrix type="matrix" values="0 0 0 0 0 0 0 0 0 0 0 0 0 0 0 0 0 0 0.15 0"/>
<feBlend mode="normal" in2="BackgroundImageFix" result="effect1_dropShadow_27_562"/>
<feBlend mode="normal" in="SourceGraphic" in2="effect1_dropShadow_27_562" result="shape"/>
</filter>
<clipPath id="clip0_27_562">
<rect width="11.0076" height="10.5364" fill="white" transform="translate(25.1821 21.1494)"/>
</clipPath>
</defs>
</svg>
