<svg width="63" height="62" viewBox="0 0 63 62" fill="none" xmlns="http://www.w3.org/2000/svg">
<g filter="url(#filter0_d_27_548)">
<ellipse cx="31.1168" cy="26.8967" rx="17.0118" ry="16.2834" fill="#FAFAFA"/>
</g>
<g clip-path="url(#clip0_27_548)">
<path d="M34.5994 20.1914H28.6332C26.6915 20.1914 25.1118 21.7034 25.1118 23.5621V29.2729C25.1118 31.1314 26.6915 32.6434 28.6332 32.6434H34.5995C36.5411 32.6434 38.1208 31.1314 38.1208 29.2729V23.5621C38.1208 21.7034 36.5411 20.1914 34.5994 20.1914V20.1914ZM37.3582 29.2729C37.3582 30.7289 36.1206 31.9134 34.5994 31.9134H28.6332C27.112 31.9134 25.8745 30.7289 25.8745 29.2729V23.5621C25.8745 22.106 27.112 20.9214 28.6332 20.9214H34.5995C36.1206 20.9214 37.3582 22.106 37.3582 23.5621V29.2729Z" fill="#1A202C"/>
<path d="M31.6161 23.0127C29.6547 23.0127 28.0591 24.54 28.0591 26.4174C28.0591 28.2949 29.6547 29.8222 31.6161 29.8222C33.5775 29.8222 35.1732 28.2949 35.1732 26.4174C35.1732 24.54 33.5775 23.0127 31.6161 23.0127ZM31.6161 29.0922C30.0754 29.0922 28.8217 27.8923 28.8217 26.4174C28.8217 24.9426 30.0754 23.7427 31.6161 23.7427C33.157 23.7427 34.4105 24.9426 34.4105 26.4174C34.4105 27.8923 33.157 29.0922 31.6161 29.0922Z" fill="#1A202C"/>
<path d="M35.2586 21.8037C34.679 21.8037 34.2075 22.2551 34.2075 22.8098C34.2075 23.3646 34.679 23.8159 35.2586 23.8159C35.8382 23.8159 36.3097 23.3646 36.3097 22.8098C36.3097 22.255 35.8382 21.8037 35.2586 21.8037ZM35.2586 23.0858C35.0996 23.0858 34.9702 22.962 34.9702 22.8098C34.9702 22.6575 35.0996 22.5337 35.2586 22.5337C35.4177 22.5337 35.5471 22.6575 35.5471 22.8098C35.5471 22.962 35.4177 23.0858 35.2586 23.0858Z" fill="#1A202C"/>
</g>
<defs>
<filter id="filter0_d_27_548" x="0.10498" y="0.613281" width="62.0234" height="60.5664" filterUnits="userSpaceOnUse" color-interpolation-filters="sRGB">
<feFlood flood-opacity="0" result="BackgroundImageFix"/>
<feColorMatrix in="SourceAlpha" type="matrix" values="0 0 0 0 0 0 0 0 0 0 0 0 0 0 0 0 0 0 127 0" result="hardAlpha"/>
<feOffset dy="4"/>
<feGaussianBlur stdDeviation="7"/>
<feColorMatrix type="matrix" values="0 0 0 0 0 0 0 0 0 0 0 0 0 0 0 0 0 0 0.15 0"/>
<feBlend mode="normal" in2="BackgroundImageFix" result="effect1_dropShadow_27_548"/>
<feBlend mode="normal" in="SourceGraphic" in2="effect1_dropShadow_27_548" result="shape"/>
</filter>
<clipPath id="clip0_27_548">
<rect width="13.009" height="12.452" fill="white" transform="translate(25.1118 20.1914)"/>
</clipPath>
</defs>
</svg>
