<svg width="102" height="20" viewBox="0 0 102 20" fill="none" xmlns="http://www.w3.org/2000/svg">
<path d="M12.5 9.92932C12.5 13.5309 9.78194 16.3911 6.5 16.3911C3.21806 16.3911 0.5 13.5309 0.5 9.92932C0.5 6.32769 3.21806 3.46753 6.5 3.46753C9.78194 3.46753 12.5 6.32769 12.5 9.92932Z" stroke="black"/>
<path d="M33.5 9.92932C33.5 13.5309 30.7819 16.3911 27.5 16.3911C24.2181 16.3911 21.5 13.5309 21.5 9.92932C21.5 6.32769 24.2181 3.46753 27.5 3.46753C30.7819 3.46753 33.5 6.32769 33.5 9.92932Z" stroke="black"/>
<path d="M59.5 9.92944C59.5 15.0099 55.6627 19.0688 51 19.0688C46.3373 19.0688 42.5 15.0099 42.5 9.92944C42.5 4.84901 46.3373 0.790039 51 0.790039C55.6627 0.790039 59.5 4.84901 59.5 9.92944Z" fill="url(#paint0_linear_105_424)" stroke="black"/>
<path d="M80.5 9.92932C80.5 13.5309 77.7819 16.3911 74.5 16.3911C71.2181 16.3911 68.5 13.5309 68.5 9.92932C68.5 6.32769 71.2181 3.46753 74.5 3.46753C77.7819 3.46753 80.5 6.32769 80.5 9.92932Z" stroke="black"/>
<path d="M101.5 9.92932C101.5 13.5309 98.7819 16.3911 95.5 16.3911C92.2181 16.3911 89.5 13.5309 89.5 9.92932C89.5 6.32769 92.2181 3.46753 95.5 3.46753C98.7819 3.46753 101.5 6.32769 101.5 9.92932Z" stroke="black"/>
<defs>
<linearGradient id="paint0_linear_105_424" x1="60" y1="0.290039" x2="40.7665" y2="18.2477" gradientUnits="userSpaceOnUse">
<stop stop-color="#F76680"/>
<stop offset="1" stop-color="#57007B"/>
</linearGradient>
</defs>
</svg>
