<svg width="166" height="94" viewBox="0 0 166 94" fill="none" xmlns="http://www.w3.org/2000/svg">
<path d="M84 79C101.673 79 116 64.6731 116 47C116 29.3269 101.673 15 84 15C66.3269 15 52 29.3269 52 47C52 64.6731 66.3269 79 84 79Z" fill="#5C2D91"/>
<path opacity="0.1" d="M61.8202 24C57.4712 27.8756 54.2626 32.8647 52.5404 38.4296C50.8181 43.9944 50.6476 49.9239 52.0471 55.5785C53.4467 61.2332 56.3632 66.3985 60.4823 70.5176C64.6013 74.6367 69.7666 77.5534 75.4212 78.953C81.0759 80.3526 87.0054 80.1822 92.5704 78.4599C98.1353 76.7377 103.125 73.5291 107 69.18L61.8202 24Z" fill="white"/>
<path d="M59.4004 52.2495C59.2137 52.2525 59.0284 52.2167 58.8563 52.1444C58.6842 52.0721 58.5289 51.9649 58.4004 51.8295C58.2682 51.699 58.1638 51.5432 58.0934 51.3713C58.0229 51.1995 57.9879 51.0152 57.9904 50.8295C57.989 50.644 58.0246 50.46 58.095 50.2884C58.1654 50.1167 58.2692 49.9607 58.4004 49.8295C58.5277 49.6919 58.6825 49.5825 58.8547 49.5084C59.027 49.4343 59.2129 49.3973 59.4004 49.3995C59.5876 49.3991 59.7729 49.437 59.9449 49.5109C60.1169 49.5849 60.2719 49.6933 60.4004 49.8295C60.5338 49.9596 60.6398 50.1151 60.7119 50.2869C60.7841 50.4587 60.8209 50.6432 60.8204 50.8295C60.8221 51.016 60.7858 51.2009 60.7135 51.3729C60.6413 51.5448 60.5347 51.7002 60.4004 51.8295C60.2707 51.9635 60.1152 52.0697 59.9433 52.1419C59.7715 52.2141 59.5868 52.2507 59.4004 52.2495ZM79.2704 51.9995H76.6504L67.2804 37.4595C67.047 37.1013 66.8525 36.7191 66.7004 36.3195H66.6204C66.7094 37.1497 66.7428 37.9849 66.7204 38.8195V51.9995H64.6004V33.7695H67.3704L76.4904 48.0495L77.2304 49.2695H77.2804C77.1748 48.3803 77.1314 47.4848 77.1504 46.5895V33.7695H79.2804V51.9995H79.2704ZM93.7004 51.9995H84.0004V33.7695H93.2404V35.6995H86.1804V41.7595H92.7604V43.6795H86.1804V49.9995H93.7004V51.9995ZM108 35.6995H102.7V51.9995H100.57V35.6995H95.3304V33.7695H108V35.6995Z" fill="white"/>
<path d="M78.1202 64.4002C77.3983 64.7498 76.6019 64.918 75.8002 64.8902C75.2675 64.9142 74.7358 64.824 74.2408 64.6256C73.7458 64.4273 73.299 64.1254 72.9302 63.7402C72.1955 62.9177 71.8083 61.8423 71.8502 60.7402C71.8233 60.1435 71.9166 59.5474 72.1244 58.9874C72.3323 58.4274 72.6505 57.9148 73.0602 57.4802C73.4595 57.0711 73.9395 56.7497 74.4698 56.5362C75 56.3227 75.5689 56.2219 76.1402 56.2402C76.824 56.2168 77.5051 56.336 78.1402 56.5902V57.5902C77.5287 57.2516 76.8391 57.0792 76.1402 57.0902C75.6996 57.0778 75.2615 57.1607 74.8559 57.3333C74.4503 57.5059 74.0868 57.7641 73.7902 58.0902C73.1666 58.8007 72.8438 59.7259 72.8902 60.6702C72.8435 61.5646 73.1445 62.4425 73.7302 63.1202C74.0112 63.4223 74.3541 63.66 74.7356 63.8171C75.1171 63.9742 75.528 64.0469 75.9402 64.0302C76.708 64.0503 77.4663 63.8564 78.1302 63.4702L78.1202 64.4002ZM82.2002 64.9002C81.8022 64.9131 81.406 64.8403 81.0385 64.6867C80.671 64.5332 80.3408 64.3024 80.0702 64.0102C79.5234 63.3999 79.2395 62.5986 79.2802 61.7802C79.2553 61.3514 79.3158 60.922 79.4583 60.5168C79.6008 60.1117 79.8224 59.7389 80.1102 59.4202C80.404 59.1335 80.7535 58.9101 81.1371 58.7639C81.5206 58.6177 81.9301 58.5518 82.3402 58.5702C82.7279 58.5495 83.1154 58.613 83.4761 58.7563C83.8369 58.8996 84.1624 59.1192 84.4302 59.4002C84.9617 60.0407 85.2298 60.8593 85.1802 61.6902C85.2222 62.5334 84.9313 63.3593 84.3702 63.9902C84.0946 64.2881 83.7582 64.5235 83.3839 64.6805C83.0096 64.8375 82.606 64.9124 82.2002 64.9002ZM82.2702 59.4302C81.9952 59.4186 81.721 59.4692 81.4682 59.5783C81.2154 59.6874 80.9905 59.8521 80.8102 60.0602C80.4254 60.5556 80.2336 61.1739 80.2702 61.8002C80.2353 62.4078 80.4278 63.0067 80.8102 63.4802C80.9924 63.6853 81.2179 63.8474 81.4704 63.9546C81.7229 64.0618 81.9961 64.1116 82.2702 64.1002C82.5386 64.116 82.807 64.0702 83.0549 63.9662C83.3028 63.8622 83.5235 63.7028 83.7002 63.5002C84.0638 63.0034 84.2408 62.3944 84.2002 61.7802C84.2398 61.1629 84.063 60.5512 83.7002 60.0502C83.526 59.8434 83.3062 59.6798 83.0581 59.5722C82.81 59.4646 82.5403 59.416 82.2702 59.4302ZM89.8702 59.7302C89.6542 59.5887 89.3978 59.5219 89.1402 59.5402C88.9388 59.5475 88.7422 59.6042 88.5678 59.7054C88.3935 59.8065 88.2466 59.949 88.1402 60.1202C87.8426 60.5914 87.6993 61.1437 87.7302 61.7002V64.7602H86.7302V58.7602H87.7302V60.0002C87.8402 59.6134 88.0588 59.2663 88.3602 59.0002C88.621 58.7738 88.9549 58.6495 89.3002 58.6502C89.4935 58.6415 89.6868 58.6686 89.8702 58.7302V59.7302ZM95.7202 62.0002H91.5002C91.4718 62.5592 91.6538 63.1086 92.0102 63.5402C92.1956 63.7251 92.4179 63.8687 92.6626 63.9618C92.9073 64.0548 93.1689 64.0952 93.4302 64.0802C94.1081 64.0734 94.7637 63.8373 95.2902 63.4102V64.3102C94.672 64.7177 93.9398 64.9174 93.2002 64.8802C92.8271 64.899 92.4544 64.8353 92.1087 64.6935C91.7629 64.5518 91.4528 64.3355 91.2002 64.0602C90.6796 63.4108 90.4194 62.5909 90.4702 61.7602C90.4343 60.9274 90.7168 60.1122 91.2602 59.4802C91.5076 59.1945 91.8153 58.9673 92.1612 58.8151C92.5071 58.6629 92.8825 58.5895 93.2602 58.6002C93.6013 58.5811 93.9423 58.6395 94.2575 58.7712C94.5727 58.9028 94.854 59.1042 95.0802 59.3602C95.5407 59.9673 95.7678 60.7197 95.7202 61.4802L95.7302 62.0002H95.7202ZM94.7202 61.2002C94.7405 60.7368 94.5991 60.2808 94.3202 59.9102C94.1834 59.7556 94.0134 59.6339 93.8229 59.5542C93.6324 59.4746 93.4264 59.439 93.2202 59.4502C93.005 59.4475 92.7916 59.4897 92.5936 59.5741C92.3956 59.6585 92.2174 59.7831 92.0702 59.9402C91.7411 60.2884 91.534 60.7341 91.4802 61.2102H94.7202V61.2002Z" fill="#F2F2F2"/>
</svg>
