<svg width="166" height="94" viewBox="0 0 166 94" fill="none" xmlns="http://www.w3.org/2000/svg">
<path d="M83.4701 75.8365C83.1521 75.8365 82.8551 75.7525 82.5801 75.6065L79.7581 73.9496C79.3341 73.7196 79.5461 73.6345 79.6731 73.5925C80.2461 73.4025 80.3531 73.3626 80.9461 73.0266C81.0101 72.9846 81.0961 73.0065 81.1581 73.0466L83.3221 74.3265C83.4071 74.3685 83.5121 74.3685 83.5761 74.3265L92.0421 69.4805C92.1271 69.4385 92.1691 69.3545 92.1691 69.2505V59.5785C92.1691 59.4735 92.1261 59.3885 92.0421 59.3485L83.5761 54.5235C83.4911 54.4815 83.3861 54.4815 83.3221 54.5235L74.8561 59.3485C74.7711 59.3905 74.7291 59.4955 74.7291 59.5785V69.2505C74.7291 69.3345 74.7721 69.4405 74.8561 69.4805L77.1691 70.8025C78.4211 71.4325 79.2061 70.6976 79.2061 69.9626V60.4165C79.2061 60.2905 79.3121 60.1645 79.4611 60.1645H80.5431C80.6701 60.1645 80.7981 60.2695 80.7981 60.4165V69.9626C80.7981 71.6196 79.8861 72.5855 78.2941 72.5855C77.8061 72.5855 77.4241 72.5856 76.3421 72.0606L74.1141 70.8005C73.5621 70.4855 73.2241 69.8986 73.2241 69.2686V59.5965C73.2241 58.9665 73.5641 58.3795 74.1141 58.0645L82.5801 53.2185C83.1101 52.9245 83.8321 52.9245 84.3631 53.2185L92.8291 58.0645C93.3811 58.3795 93.7191 58.9665 93.7191 59.5965V69.2686C93.7191 69.8986 93.3791 70.4855 92.8291 70.8005L84.3631 75.6465C84.0826 75.7713 83.7791 75.8357 83.4721 75.8355L83.4701 75.8365ZM86.0701 69.1866C82.3571 69.1866 81.5931 67.5085 81.5931 66.0815C81.5931 65.9555 81.6991 65.8295 81.8481 65.8295H82.9511C83.0781 65.8295 83.1841 65.9135 83.1841 66.0295C83.3541 67.1415 83.8421 67.6865 86.0911 67.6865C87.8731 67.6865 88.6371 67.2865 88.6371 66.3435C88.6371 65.7985 88.4251 65.3995 85.6451 65.1265C83.3321 64.8965 81.8891 64.3926 81.8891 62.5666C81.8891 60.8666 83.3321 59.8595 85.7511 59.8595C88.4671 59.8595 89.8041 60.7825 89.9741 62.7965C89.9741 62.8595 89.9541 62.9225 89.9101 62.9865C89.8671 63.0285 89.8041 63.0705 89.7401 63.0705H88.6371C88.5311 63.0705 88.4251 62.9865 88.4041 62.8805C88.1491 61.7265 87.4921 61.3485 85.7521 61.3485C83.8001 61.3485 83.5661 62.0185 83.5661 62.5235C83.5661 63.1315 83.8421 63.3205 86.4731 63.6565C89.0731 63.9925 90.3131 64.4745 90.3131 66.2795C90.2931 68.1255 88.7631 69.1745 86.0691 69.1745L86.0701 69.1866Z" fill="#539E43"/>
<path d="M57.2 38.0081C57.2 37.6301 56.988 37.2741 56.648 37.0851L47.651 31.9651C47.501 31.8811 47.333 31.8391 47.163 31.8181H47.078C46.908 31.8181 46.738 31.8811 46.59 31.9651L37.593 37.0851C37.253 37.2751 37.041 37.6301 37.041 38.0081L37.061 51.7711C37.0605 51.866 37.086 51.9592 37.1346 52.0406C37.1832 52.122 37.2532 52.1886 37.337 52.2331C37.507 52.3381 37.719 52.3381 37.867 52.2331L43.214 49.2131C43.554 49.0231 43.766 48.6681 43.766 48.2901V41.8501C43.766 41.4721 43.978 41.1161 44.318 40.9271L46.588 39.6271C46.758 39.5221 46.948 39.4801 47.14 39.4801C47.3279 39.4737 47.5132 39.525 47.671 39.6271L49.941 40.9271C50.281 41.1171 50.493 41.4721 50.493 41.8501V48.2901C50.493 48.6681 50.705 49.0241 51.045 49.2131L56.392 52.2331C56.562 52.3381 56.774 52.3381 56.944 52.2331C57.0278 52.1886 57.0978 52.122 57.1464 52.0406C57.1951 51.9592 57.2205 51.866 57.22 51.7711L57.2 38.0081ZM100.445 19.0631C100.363 19.0216 100.272 19 100.18 19C100.087 19 99.9964 19.0216 99.914 19.0631C99.744 19.1681 99.638 19.3361 99.638 19.5231V33.1601C99.638 33.2861 99.574 33.4121 99.448 33.4961C99.3891 33.5271 99.3236 33.5433 99.257 33.5433C99.1905 33.5433 99.1249 33.5271 99.066 33.4961L96.816 32.2161C96.481 32.0261 96.069 32.0261 95.734 32.2161L86.737 37.3561C86.397 37.5461 86.185 37.9011 86.185 38.2791V48.5391C86.185 48.9171 86.397 49.2731 86.737 49.4621L95.734 54.6021C96.069 54.7921 96.481 54.7921 96.816 54.6021L105.813 49.4621C106.153 49.2721 106.365 48.9171 106.365 48.5391V22.9651C106.365 22.5651 106.153 22.2101 105.813 22.0211L100.445 19.0631ZM99.618 45.1631C99.618 45.2681 99.576 45.3531 99.491 45.3931L96.414 47.1551C96.327 47.1971 96.224 47.1971 96.138 47.1551L93.061 45.3931C92.976 45.3511 92.934 45.2461 92.934 45.1631V41.6381C92.934 41.5331 92.976 41.4481 93.061 41.4081L96.138 39.6461C96.225 39.6041 96.328 39.6041 96.414 39.6461L99.491 41.4081C99.576 41.4501 99.618 41.5551 99.618 41.6381V45.1631ZM130.385 41.5531C130.725 41.3631 130.915 41.0081 130.915 40.6301V38.1331C130.913 37.9467 130.863 37.764 130.77 37.6024C130.677 37.4408 130.544 37.3057 130.384 37.2101L121.451 32.0901C121.116 31.9001 120.704 31.9001 120.369 32.0901L111.372 37.2301C111.032 37.4201 110.82 37.7751 110.82 38.1531V48.4131C110.82 48.7911 111.032 49.1471 111.372 49.3361L120.305 54.3711C120.645 54.5611 121.048 54.5611 121.365 54.3711L126.775 51.3911C126.859 51.3466 126.929 51.28 126.977 51.1986C127.026 51.1172 127.052 51.024 127.051 50.9291C127.052 50.8343 127.026 50.7411 126.977 50.6596C126.929 50.5782 126.859 50.5116 126.775 50.4671L117.735 45.3271C117.565 45.2221 117.459 45.0541 117.459 44.8671V41.6671C117.459 41.5723 117.484 41.4791 117.533 41.3976C117.581 41.3162 117.651 41.2496 117.735 41.2051L120.557 39.6101C120.727 39.5051 120.94 39.5051 121.109 39.6101L123.931 41.2051C124.101 41.3101 124.207 41.4781 124.207 41.6671V44.1851C124.207 44.2798 124.232 44.3728 124.281 44.454C124.329 44.5353 124.399 44.6017 124.483 44.6461C124.653 44.7511 124.865 44.7511 125.035 44.6461L130.382 41.5621L130.385 41.5531Z" fill="#333333"/>
<path d="M120.773 41.0706C120.837 41.0286 120.921 41.0286 120.985 41.0706L122.705 42.0566C122.769 42.0986 122.811 42.1616 122.811 42.2466V44.2186C122.811 44.2565 122.801 44.2939 122.783 44.327C122.764 44.3601 122.737 44.3879 122.705 44.4076L120.985 45.3936C120.921 45.4356 120.837 45.4356 120.773 45.3936L119.053 44.4076C119.02 44.3879 118.993 44.3601 118.975 44.327C118.956 44.2939 118.947 44.2565 118.947 44.2186V42.2466C118.947 42.1626 118.989 42.0996 119.053 42.0566L120.773 41.0706Z" fill="#539E43"/>
<path d="M72.2442 32.1327C71.9092 31.9427 71.4972 31.9427 71.1622 32.1327L62.2292 37.2307C61.8892 37.4207 61.6992 37.7757 61.6992 38.1537V48.3717C61.7014 48.5582 61.7514 48.7409 61.8443 48.9025C61.9373 49.0641 62.0702 49.1991 62.2302 49.2947L71.1632 54.3927C71.4982 54.5827 71.9102 54.5827 72.2452 54.3927L81.1782 49.2947C81.5182 49.1047 81.7082 48.7497 81.7082 48.3717V38.1537C81.706 37.9673 81.6561 37.7846 81.5631 37.623C81.4701 37.4614 81.3373 37.3263 81.1772 37.2307L72.2442 32.1327Z" fill="url(#paint0_linear_10_2552)"/>
<mask id="mask0_10_2552" style="mask-type:alpha" maskUnits="userSpaceOnUse" x="61" y="31" width="21" height="24">
<path d="M72.2442 32.1327C71.9092 31.9427 71.4972 31.9427 71.1622 32.1327L62.2292 37.2307C61.8892 37.4207 61.6992 37.7757 61.6992 38.1537V48.3717C61.7014 48.5582 61.7514 48.7409 61.8443 48.9025C61.9373 49.0641 62.0702 49.1991 62.2302 49.2947L71.1632 54.3927C71.4982 54.5827 71.9102 54.5827 72.2452 54.3927L81.1782 49.2947C81.5182 49.1047 81.7082 48.7497 81.7082 48.3717V38.1537C81.706 37.9673 81.6561 37.7846 81.5631 37.623C81.4701 37.4614 81.3373 37.3263 81.1772 37.2307L72.2442 32.1327Z" fill="white"/>
</mask>
<g mask="url(#mask0_10_2552)">
<path d="M81.1991 37.2303L72.2141 32.1323C72.1341 32.0783 72.0441 32.0533 71.9481 32.0283L61.8901 49.0633C61.9731 49.1633 62.0741 49.2493 62.1871 49.3153L71.1631 54.4133C71.4181 54.5603 71.7151 54.6033 71.9901 54.5183L81.4341 37.4403C81.3665 37.3596 81.2877 37.2889 81.2001 37.2303H81.1991Z" fill="url(#paint1_linear_10_2552)"/>
</g>
<mask id="mask1_10_2552" style="mask-type:alpha" maskUnits="userSpaceOnUse" x="61" y="31" width="21" height="24">
<path d="M72.2442 32.1327C71.9092 31.9427 71.4972 31.9427 71.1622 32.1327L62.2292 37.2307C61.8892 37.4207 61.6992 37.7757 61.6992 38.1537V48.3717C61.7014 48.5582 61.7514 48.7409 61.8443 48.9025C61.9373 49.0641 62.0702 49.1991 62.2302 49.2947L71.1632 54.3927C71.4982 54.5827 71.9102 54.5827 72.2452 54.3927L81.1782 49.2947C81.5182 49.1047 81.7082 48.7497 81.7082 48.3717V38.1537C81.706 37.9673 81.6561 37.7846 81.5631 37.623C81.4701 37.4614 81.3373 37.3263 81.1772 37.2307L72.2442 32.1327Z" fill="white"/>
</mask>
<g mask="url(#mask1_10_2552)">
<path fill-rule="evenodd" clip-rule="evenodd" d="M81.22 49.2942C81.475 49.1472 81.666 48.8942 81.75 48.6242L71.904 32.0082C71.649 31.9662 71.374 31.9882 71.14 32.1342L62.229 37.2102L71.841 54.5402C71.9806 54.5175 72.1163 54.4751 72.244 54.4142L81.22 49.2942Z" fill="url(#paint2_linear_10_2552)"/>
<path d="M81.2198 49.2945L72.2658 54.3925C72.1393 54.4564 72.0031 54.499 71.8628 54.5185L72.0328 54.8335L81.9628 49.1485V49.0225L81.7078 48.6025C81.6658 48.8965 81.4748 49.1475 81.2198 49.2945Z" fill="url(#paint3_linear_10_2552)"/>
<path d="M81.2198 49.2945L72.2658 54.3925C72.1393 54.4564 72.0031 54.499 71.8628 54.5185L72.0328 54.8335L81.9628 49.1485V49.0225L81.7078 48.6025C81.6658 48.8965 81.4748 49.1475 81.2198 49.2945Z" fill="url(#paint4_linear_10_2552)"/>
</g>
<defs>
<linearGradient id="paint0_linear_10_2552" x1="74.571" y1="35.9327" x2="66.8308" y2="51.5428" gradientUnits="userSpaceOnUse">
<stop stop-color="#41873F"/>
<stop offset="0.3288" stop-color="#418B3D"/>
<stop offset="0.6352" stop-color="#419637"/>
<stop offset="0.9319" stop-color="#3FA92D"/>
<stop offset="1" stop-color="#3FAE2A"/>
</linearGradient>
<linearGradient id="paint1_linear_10_2552" x1="70.6738" y1="44.4597" x2="89.675" y2="30.5774" gradientUnits="userSpaceOnUse">
<stop offset="0.1376" stop-color="#41873F"/>
<stop offset="0.4032" stop-color="#54A044"/>
<stop offset="0.7136" stop-color="#66B848"/>
<stop offset="0.9081" stop-color="#6CC04A"/>
</linearGradient>
<linearGradient id="paint2_linear_10_2552" x1="61.3722" y1="43.264" x2="82.0426" y2="43.264" gradientUnits="userSpaceOnUse">
<stop offset="0.09192" stop-color="#6CC04A"/>
<stop offset="0.2864" stop-color="#66B848"/>
<stop offset="0.5968" stop-color="#54A044"/>
<stop offset="0.8624" stop-color="#41873F"/>
</linearGradient>
<linearGradient id="paint3_linear_10_2552" x1="61.3728" y1="51.7352" x2="82.0433" y2="51.7352" gradientUnits="userSpaceOnUse">
<stop offset="0.09192" stop-color="#6CC04A"/>
<stop offset="0.2864" stop-color="#66B848"/>
<stop offset="0.5968" stop-color="#54A044"/>
<stop offset="0.8624" stop-color="#41873F"/>
</linearGradient>
<linearGradient id="paint4_linear_10_2552" x1="85.0547" y1="45.5267" x2="78.6448" y2="58.4558" gradientUnits="userSpaceOnUse">
<stop stop-color="#41873F"/>
<stop offset="0.3288" stop-color="#418B3D"/>
<stop offset="0.6352" stop-color="#419637"/>
<stop offset="0.9319" stop-color="#3FA92D"/>
<stop offset="1" stop-color="#3FAE2A"/>
</linearGradient>
</defs>
</svg>
